# xmcd CD database file
#
# Track frame offsets:
#	150
#	11275
#	24275
#	38575
#	51625
#	65500
#	74737
#	86400
#	99575
#	113837
#	127812
#	141387
#	152237
#	163250
#	176100
#	187875
#	201225
#	214062
#	227687
#	242675
#	256375
#	273237
#	284125
#	295937
#	307575
#	321625
#
# Disc length: 4467 seconds
#
# Revision: 5
# Processed by: cddbd v1.5.2PL0 Copyright (c) Steve Scherf et al.
# Submitted via: CDex 1.99
#
DISCID=8411711a
DTITLE=Various Artist - The Chess Story 1947-1975 CD10: 1962-1964
DYEAR=1999
DGENRE=Soul/R&B
TTITLE0=Billy Stewart - Reap With You Sow
TTITLE1=Dave "Baby" Cortez - Rinky Dink
TTITLE2=Bo Diddley - You Can't Judge A Book By Its Cover
TTITLE3=Etta James - Stop The Wedding
TTITLE4=Ty Hunter - Lonely Baby
TTITLE5=Jan Bradley - Mama Didn't Lie
TTITLE6=Cookie and The Cupcakes - Got You On My Mind
TTITLE7=Etta James - Pushover
TTITLE8=Sonny Boy Williamson - Help Me
TTITLE9=Howlin' Wolf - 300 Pounds Of Joy
TTITLE10=The Jaynettes - Sally Go Round The Roses
TTITLE11=Joe Tex - You Keep Her
TTITLE12=The Knight Brothers - Second Hand Lover
TTITLE13=Tommy Tucker - Hi-Heel Sneakers
TTITLE14=Chuck Berry - Nadine
TTITLE15=Muddy Waters - You Can't Lose What You Ain't Never Had
TTITLE16=Sugar Pie DeSanto - Soulful Dress
TTITLE17=Buddy Guy - My Time After A While
TTITLE18=Jackie Ross - Selfish One
TTITLE19=Fontella Bass and Bobby McClure - Don't Mess Up A Good Thing
TTITLE20=Mitty Collier - I Had A Talk With My Man
TTITLE21=Chuck Berry - Promised Land
TTITLE22=Tony Clarke - The Entertainer
TTITLE23=The Radiants - Voice Your Choice
TTITLE24=Buster Brown - Crawlin' King Snake
TTITLE25=Billy Stewart - I Do Love You
EXTD=YEAR: 1999
EXTT0=
EXTT1=
EXTT2=
EXTT3=
EXTT4=
EXTT5=
EXTT6=
EXTT7=
EXTT8=
EXTT9=
EXTT10=
EXTT11=
EXTT12=
EXTT13=
EXTT14=
EXTT15=
EXTT16=
EXTT17=
EXTT18=
EXTT19=
EXTT20=
EXTT21=
EXTT22=
EXTT23=
EXTT24=
EXTT25=
PLAYORDER=
